<svg xmlns="http://www.w3.org/2000/svg" viewBox="0 0 400 600"><defs><filter id="glow-crimson" width="160%" height="160%" x="-30%" y="-30%"><feGaussianBlur result="blur" stdDeviation="6"/><feMerge><feMergeNode in="blur"/><feMergeNode in="SourceGraphic"/></feMerge></filter><filter id="glow-gold" width="160%" height="160%" x="-30%" y="-30%"><feGaussianBlur result="blur" stdDeviation="4"/><feMerge><feMergeNode in="blur"/><feMergeNode in="SourceGraphic"/></feMerge></filter></defs><style>@keyframes spin-cw{0%{transform:rotate(0deg)}to{transform:rotate(360deg)}}@keyframes spin-ccw{0%{transform:rotate(0deg)}to{transform:rotate(-360deg)}}@keyframes vein-pulse{0%,to{opacity:.45;filter:drop-shadow(0 0 2px #9e1b22)}50%{opacity:1;filter:drop-shadow(0 0 8px #ba182b)}}@keyframes ember-drift{0%{transform:translate(0,0);opacity:0}15%,85%{opacity:.8}to{transform:translate(var(--drift-x),var(--drift-y));opacity:0}}@keyframes scanline{0%,to{transform:translateY(20px);opacity:.15}50%{transform:translateY(560px);opacity:.45}}@keyframes mist-drift{0%,to{opacity:.04}50%{opacity:.08}}</style><rect width="100%" height="100%" fill="#08080a"/><g fill="#736d66" opacity=".05" style="animation:mist-drift 6s infinite ease-in-out"><circle cx="100" cy="500" r="150"/><circle cx="350" cy="450" r="200"/><circle cx="200" cy="550" r="250"/></g><g style="transform-origin:200px 300px;animation:spin-cw 25s infinite linear"><circle cx="200" cy="300" r="120" fill="none" stroke="#9e1b22" stroke-dasharray="16,30,8,30" stroke-width="1.8" filter="url(#glow-crimson)"/><circle cx="200" cy="300" r="110" fill="none" stroke="#9e1b22" stroke-dasharray="2,6"/><path fill="none" stroke="#9e1b22" stroke-opacity=".3" stroke-width="1.2" d="m200 180 104 180H96z"/></g><g style="transform-origin:200px 300px;animation:spin-ccw 18s infinite linear"><circle cx="200" cy="300" r="95" fill="none" stroke="#d4a355" stroke-dasharray="4,12" stroke-width="1.2" filter="url(#glow-gold)"/><circle cx="200" cy="300" r="85" fill="none" stroke="#d4a355" stroke-dasharray="2,6"/><path fill="none" stroke="#d4a355" stroke-opacity=".4" d="m200 420 104-180H96z"/></g><circle cx="200" cy="300" r="35" fill="#9e1b22" filter="url(#glow-crimson)" opacity=".45"/><circle cx="190" cy="390" r="2" fill="#ff2a4b" style="animation-delay:0s;--drift-x:-40px;--drift-y:-180px"/><circle cx="210" cy="370" r="2.5" fill="#d4a355" style="animation-delay:.9s;--drift-x:50px;--drift-y:-190px"/><circle cx="195" cy="410" r="1.8" fill="#ff2a4b" style="animation-delay:1.8s;--drift-x:-20px;--drift-y:-210px"/><circle cx="205" cy="400" r="2.2" fill="#d4a355" style="animation-delay:2.7s;--drift-x:30px;--drift-y:-160px"/><g fill="#0f0d10" stroke="#a8a095" stroke-width="2"><path d="m200 100 15 50v250l-15 50-15-50V150z"/><rect width="80" height="14" x="160" y="140" fill="#171417" rx="3"/><path fill="#08080a" d="M191 90h18v50h-18z"/><path d="M191 100h18m-18 15h18m-18 15h18"/><circle cx="200" cy="80" r="12" fill="#171417"/><circle cx="200" cy="80" r="5" fill="#d4a355" stroke="none"/></g><path stroke="#9e1b22" stroke-linecap="round" stroke-width="2" d="M200 150v250" filter="url(#glow-crimson)" style="animation:vein-pulse 2s infinite ease-in-out"/><path stroke="#fff" stroke-opacity=".9" stroke-width=".75" d="M200 150v250"/><path fill="none" stroke="#d4a355" stroke-opacity=".15" d="M15 15h370v570H15z"/><path fill="none" stroke="#9e1b22" stroke-opacity=".08" stroke-width=".5" d="M20 20h360v560H20z"/><g style="animation:scanline 8s infinite ease-in-out"><path stroke="#9e1b22" stroke-opacity=".4" stroke-width="1.2" d="M20 0h360" filter="url(#glow-crimson)"/><circle cx="200" r="2.5" fill="#fff" filter="url(#glow-crimson)"/></g><g fill="#d4a355" font-family="monospace" font-size="10" opacity=".8"><text x="30" y="45" opacity=".5">CORE_VEINS: STABLE</text><text x="30" y="60" opacity=".5">SIPHON_FLOW: MAX</text><text x="370" y="45" opacity=".5" text-anchor="end">VAULT_LOCK</text><text x="370" y="60" opacity=".5" text-anchor="end">SECURE_LEVEL: OMEGA</text><text x="200" y="550" filter="url(#glow-gold)" font-family="'Cinzel', serif" font-size="11" font-weight="700" letter-spacing="2" text-anchor="middle">VEYRATH: RITUAL_SWORD_VEIN</text></g></svg>