<svg xmlns="http://www.w3.org/2000/svg" viewBox="0 0 400 600"><defs><filter id="glow-crimson" width="160%" height="160%" x="-30%" y="-30%"><feGaussianBlur result="blur" stdDeviation="6"/><feMerge><feMergeNode in="blur"/><feMergeNode in="SourceGraphic"/></feMerge></filter><filter id="glow-gold" width="160%" height="160%" x="-30%" y="-30%"><feGaussianBlur result="blur" stdDeviation="4"/><feMerge><feMergeNode in="blur"/><feMergeNode in="SourceGraphic"/></feMerge></filter></defs><style>@keyframes spin-cw{0%{transform:rotate(0deg)}to{transform:rotate(360deg)}}@keyframes spin-ccw{0%{transform:rotate(0deg)}to{transform:rotate(-360deg)}}@keyframes vein-glow{0%,to{stroke-opacity:.35;stroke-width:1.2px}50%{stroke-opacity:.9;stroke-width:2.2px}}@keyframes drip{0%{transform:translateY(0);opacity:0}10%,90%{opacity:1}to{transform:translateY(220px);opacity:0}}@keyframes scanline{0%,to{transform:translateY(20px);opacity:.15}50%{transform:translateY(560px);opacity:.45}}@keyframes mist-drift{0%,to{opacity:.03}50%{opacity:.08}}</style><rect width="100%" height="100%" fill="#08080a"/><g fill="#736d66" opacity=".05" style="animation:mist-drift 6s infinite ease-in-out"><circle cx="100" cy="500" r="130"/><circle cx="300" cy="480" r="160"/><circle cx="200" cy="530" r="200"/></g><path stroke="#9e1b22" stroke-opacity=".08" d="M0 100h400M0 200h400M0 300h400M0 400h400M0 500h400M100 0v600M200 0v600M300 0v600"/><g fill="none" stroke="#a8a095" stroke-opacity=".45" stroke-width="2"><path d="M100 500V250c0-150 200-150 200 0v250"/><path stroke-opacity=".25" d="M120 500V250c0-120 160-120 160 0v250"/><path stroke-opacity=".25" d="M160 500V250c0-70 80-70 80 0v250"/><circle cx="200" cy="180" r="30" stroke-opacity=".3"/><circle cx="160" cy="240" r="20" stroke-opacity=".3"/><circle cx="240" cy="240" r="20" stroke-opacity=".3"/></g><path fill="none" stroke="#9e1b22" stroke-width="1.5" d="M100 500q-10-130 0-250t30-80" filter="url(#glow-crimson)"/><path fill="none" stroke="#9e1b22" stroke-width="1.5" d="M300 500q10-130 0-250t-30-80" filter="url(#glow-crimson)" style="animation-delay:2s"/><g style="transform-origin:200px 300px;animation:spin-cw 22s infinite linear"><circle cx="200" cy="300" r="85" fill="none" stroke="#9e1b22" stroke-dasharray="14,10,6,10" stroke-width="1.5" filter="url(#glow-crimson)"/><path fill="none" stroke="#9e1b22" stroke-opacity=".3" d="m200 215 81 112-131-57h100l-131 57z"/></g><g style="transform-origin:200px 300px;animation:spin-ccw 16s infinite linear"><circle cx="200" cy="300" r="70" fill="none" stroke="#d4a355" stroke-dasharray="4,8" stroke-width="1.2" filter="url(#glow-gold)"/><path fill="none" stroke="#d4a355" stroke-opacity=".4" d="m200 230 60 105H140z"/></g><circle cx="200" cy="300" r="10" fill="#9e1b22" filter="url(#glow-crimson)"/><circle cx="200" cy="300" r="4" fill="#fff"/><circle cx="200" cy="180" r="2.2" fill="#9e1b22" style="animation-delay:0s"/><circle cx="160" cy="240" r="1.8" fill="#9e1b22" style="animation-delay:1.1s"/><circle cx="240" cy="240" r="1.8" fill="#9e1b22" style="animation-delay:2.2s"/><g fill="#9e1b22" opacity=".6"><ellipse cx="200" cy="510" opacity=".3" rx="40" ry="8"/><ellipse cx="140" cy="520" opacity=".25" rx="15" ry="5"/><ellipse cx="250" cy="515" opacity=".25" rx="20" ry="6"/></g><path fill="none" stroke="#d4a355" stroke-opacity=".15" d="M15 15h370v570H15z"/><path fill="none" stroke="#9e1b22" stroke-opacity=".08" stroke-width=".5" d="M20 20h360v560H20z"/><g style="animation:scanline 8s infinite ease-in-out"><path stroke="#9e1b22" stroke-opacity=".4" stroke-width="1.2" d="M20 0h360" filter="url(#glow-crimson)"/><circle cx="200" r="2.5" fill="#fff" filter="url(#glow-crimson)"/></g><g fill="#d4a355" font-family="monospace" font-size="10" opacity=".8"><text x="30" y="45" opacity=".5">BLOOD_RES: PURE</text><text x="30" y="60" opacity=".5">CELESTIAL_ALIGN: 14 DEG</text><text x="370" y="45" opacity=".5" text-anchor="end">SYNOD_MONITOR</text><text x="370" y="60" opacity=".5" text-anchor="end">STATUS: HIGH_RESONANCE</text><text x="200" y="550" filter="url(#glow-gold)" font-family="'Cinzel', serif" font-size="11" font-weight="700" letter-spacing="2" text-anchor="middle">VEYRATH: RED_CROWN_ARCHWAY</text></g></svg>